<svg xmlns="http://www.w3.org/2000/svg" width="100%" height="auto" viewBox="0 0 512 512" version="1.1">
	<path d="M 360.286 117.250 C 360.571 118.487, 361.698 122.650, 362.791 126.500 C 365.175 134.904, 367.678 146.646, 368.545 153.500 C 369.316 159.593, 373.159 181.889, 376.475 199.500 C 380.994 223.502, 381.410 227.385, 381.295 244.500 C 381.073 277.661, 373.206 303.649, 356.283 327.124 C 329.291 364.567, 326.612 368.563, 327.517 370.027 C 329.501 373.238, 344.380 367.765, 372.500 353.482 C 389.069 345.066, 401.778 340.594, 415 338.528 C 417.475 338.142, 422.988 336.665, 427.250 335.247 C 434.085 332.974, 435 332.382, 435 330.238 C 435 328.901, 432.750 324.613, 430 320.710 C 424.244 312.539, 423.794 310.291, 427.750 309.461 C 429.262 309.144, 432.387 308.461, 434.693 307.942 C 436.999 307.424, 439.856 307, 441.042 307 C 444.763 307, 450 303.952, 450 301.787 C 450 300.695, 448.249 295.458, 446.110 290.151 C 443.970 284.843, 440.124 273.525, 437.563 265 C 428.907 236.189, 427.633 232.432, 419.259 211 C 416.787 204.675, 413.640 196.125, 412.264 192 C 407.803 178.623, 389.708 144.396, 382.129 135 C 369.902 119.840, 358.803 110.821, 360.286 117.250 M 277.588 137.306 C 274.340 147.954, 272.734 155.859, 269.945 174.925 L 267.689 190.349 270.004 194.714 C 271.278 197.115, 272.660 198.724, 273.075 198.290 C 273.984 197.339, 275.334 187.057, 277.970 161 C 280.749 133.525, 281.119 129, 280.588 129 C 280.331 129, 278.981 132.738, 277.588 137.306 M 225.333 133.777 C 223.097 135.700, 221.999 137.675, 221.597 140.500 C 220.436 148.659, 218.930 188.594, 219.586 193.843 C 220.403 200.384, 221.486 198.968, 222.353 190.225 C 223.363 180.029, 223.746 179.279, 229.872 175.498 C 234.294 172.769, 236.040 170.922, 237.899 167.005 C 239.206 164.252, 240.664 162, 241.138 162 C 242.249 162, 242.265 155.698, 241.156 154.450 C 240.692 153.928, 239.029 150.350, 237.461 146.500 C 234.224 138.555, 232.931 136.313, 231.500 136.166 C 230.950 136.109, 230.358 134.923, 230.184 133.531 C 229.788 130.368, 229.267 130.395, 225.333 133.777 M 296.187 134.173 C 296.639 138.757, 299 139.102, 299 134.583 C 299 132, 298.564 131, 297.437 131 C 296.281 131, 295.955 131.828, 296.187 134.173 M 325.030 139.750 C 325.054 146.679, 325.293 148.100, 326.176 146.578 C 326.790 145.521, 327.511 141.584, 327.780 137.828 C 328.199 131.977, 328.035 131, 326.634 131 C 325.244 131, 325.005 132.307, 325.030 139.750 M 369.414 137.750 C 369.766 140.363, 371.358 149.475, 372.952 158 C 378.246 186.325, 381.849 206.444, 382.493 211.269 C 383.512 218.914, 385.024 215.681, 384.395 207.201 C 382.767 185.251, 380.960 169.006, 379.882 166.641 C 378.790 164.244, 379.229 161.896, 380.526 163.193 C 382.188 164.854, 385.327 176.752, 386.149 184.500 C 386.674 189.450, 387.576 195.525, 388.154 198 C 388.732 200.475, 389.417 209.700, 389.677 218.500 C 389.937 227.300, 390.410 235.175, 390.728 236 C 391.737 238.614, 392.882 229.979, 392.942 219.309 C 392.974 213.704, 393.417 208.860, 393.926 208.546 C 394.999 207.883, 395.472 212.154, 396.907 235.426 C 398.056 254.057, 399.438 258.476, 400.558 247.105 C 401.814 234.360, 403.041 238.315, 402.909 254.680 C 402.784 270.149, 404.092 279.566, 407.163 285.305 C 407.708 286.323, 407.885 287.857, 407.556 288.714 C 407.020 290.112, 406.772 290.104, 405.150 288.636 C 402.568 286.299, 399.448 286.614, 397.227 289.438 C 396.173 290.779, 393.615 297.641, 391.543 304.686 C 387.708 317.731, 384.588 325.519, 382.739 326.661 C 381.595 327.368, 381.673 326.969, 385.307 313.500 C 388.876 300.272, 389.126 299, 388.154 299 C 387.668 299, 385.802 302.368, 384.007 306.484 C 380.664 314.152, 378 317.761, 378 314.622 C 378 310.973, 376.089 313.518, 371.912 322.732 C 365.127 337.699, 354.479 352.812, 352.273 350.606 C 351.868 350.202, 352.257 348.662, 353.137 347.185 C 362.675 331.175, 366.129 324.899, 365.841 324.106 C 365.268 322.521, 340 357.514, 340 359.893 C 340 361.430, 341.086 361.302, 348.246 358.917 C 354.891 356.704, 364.228 352.380, 370 348.841 C 376.410 344.911, 390.478 338.013, 392.095 338.006 C 392.972 338.003, 396.347 337.092, 399.595 335.983 C 402.843 334.874, 410.185 333.076, 415.911 331.989 C 421.637 330.901, 426.490 329.843, 426.696 329.637 C 426.903 329.431, 424.151 323.951, 420.583 317.460 C 417.014 310.968, 414.324 305.284, 414.606 304.829 C 414.888 304.373, 417.454 303.999, 420.309 303.999 C 423.164 303.998, 429.325 303.323, 434 302.500 C 438.675 301.677, 442.613 301.002, 442.750 301.001 C 443.744 300.996, 442.546 294.973, 439.867 286.500 C 432.505 263.223, 420.670 227.425, 420.031 226.500 C 419.651 225.950, 417.878 221.450, 416.092 216.500 C 407.751 193.383, 398.134 172.192, 391.380 162.045 C 389.796 159.666, 386.205 154.150, 383.400 149.786 C 377.474 140.566, 371.360 133, 369.837 133 C 369.144 133, 368.997 134.659, 369.414 137.750 M 255.649 137.987 C 255.983 140.455, 256.873 144.224, 257.628 146.363 C 259.399 151.383, 259.363 153.647, 257.500 154.362 C 255.621 155.083, 255.562 157.391, 257.383 158.903 C 258.450 159.788, 258.900 159.702, 259.352 158.526 C 259.674 157.686, 260.626 157, 261.469 157 C 263.755 157, 263.344 154.094, 259.898 145.888 C 258.192 141.824, 256.401 137.375, 255.919 136 C 255.295 134.223, 255.217 134.797, 255.649 137.987 M 248.362 139 C 249.148 147.339, 253.456 165, 254.703 165 C 256.920 165, 256.151 160.011, 252.007 147.500 C 249.821 140.900, 248.180 137.075, 248.362 139 M 341.015 143.691 C 341.027 146.519, 341.280 147.113, 342 146 C 343.264 144.044, 343.264 141.281, 342 140.500 C 341.399 140.129, 341.006 141.403, 341.015 143.691 M 351.121 141.070 C 347.361 141.883, 346.038 143.371, 346.015 146.814 C 346.002 148.816, 345.566 149.086, 342.782 148.814 C 340.055 148.548, 339.342 148.957, 338.103 151.500 C 334.883 158.106, 338.053 176, 342.444 176 C 343.300 176, 344 175.597, 344 175.105 C 344 174.613, 345.117 173.150, 346.483 171.855 C 349.501 168.992, 349.566 167.977, 347.004 163.774 C 344.759 160.093, 344.533 157.222, 346.055 151.741 C 347.438 146.761, 350.726 144.565, 354.595 146.036 C 356.170 146.635, 357.781 147.646, 358.175 148.284 C 359.780 150.879, 360.052 147.912, 358.508 144.659 C 356.554 140.540, 355.637 140.095, 351.121 141.070 M 291.671 142.657 C 291.384 143.671, 291.003 153.275, 290.824 164 L 290.500 183.500 295 183.500 L 299.500 183.500 300.396 175.828 C 301.373 167.462, 301.772 167.043, 308.785 167.014 C 311.725 167.001, 311.961 166.796, 311.032 165.060 C 310.349 163.783, 308.713 163.014, 306.247 162.810 L 302.500 162.500 302.200 156.163 C 301.825 148.236, 302.754 147.034, 309.372 146.882 C 312.193 146.817, 315.850 146.457, 317.500 146.083 L 320.500 145.403 316.513 144.046 C 314.320 143.299, 310.045 142.534, 307.013 142.345 C 303.981 142.156, 299.406 141.734, 296.847 141.408 C 292.886 140.902, 292.116 141.088, 291.671 142.657 M 179 151.066 C 179 152.202, 179.521 154.104, 180.157 155.293 C 181.261 157.356, 181.345 157.368, 181.984 155.546 C 182.942 152.815, 182.009 149, 180.383 149 C 179.623 149, 179 149.930, 179 151.066 M 185.672 154.667 C 184.846 156.264, 183.007 158.193, 181.585 158.954 C 177.777 160.993, 177.752 160.761, 184.987 190.500 C 187.839 202.221, 189.150 203.786, 193.386 200.530 C 195.221 199.120, 195.225 198.764, 193.527 187.290 C 192.568 180.806, 191.187 172.871, 190.458 169.657 C 189.730 166.444, 189.370 163.198, 189.659 162.445 C 190.497 160.263, 193.404 159.853, 197.089 161.396 C 201.106 163.079, 203.964 165.996, 206.986 171.500 L 209.182 175.500 208.507 171.500 C 207.665 166.509, 203.658 159.005, 199.927 155.430 C 197.862 153.452, 195.749 152.586, 192.134 152.239 C 187.465 151.790, 187.086 151.933, 185.672 154.667 M 227.575 153.250 C 227.040 155.096, 224.986 170.216, 224.993 172.250 C 225.003 174.766, 225.970 174.415, 230.750 170.159 C 234.910 166.456, 235.840 164.356, 234.165 162.450 C 233.706 161.928, 232.544 159.363, 231.583 156.750 C 229.876 152.112, 228.303 150.738, 227.575 153.250 M 260.150 163.168 C 257.867 165.974, 256 168.839, 256 169.536 C 256 170.232, 257.241 173.659, 258.757 177.151 C 264.112 189.484, 264.846 189.635, 267.445 178.941 C 269.087 172.185, 269.086 171.499, 267.428 165.373 C 266.468 161.825, 265.371 158.729, 264.991 158.494 C 264.610 158.259, 262.432 160.362, 260.150 163.168 M 242 164 C 242 165.111, 242.667 166, 243.500 166 C 244.333 166, 245 165.111, 245 164 C 245 162.889, 244.333 162, 243.500 162 C 242.667 162, 242 162.889, 242 164 M 239.316 169.618 C 238.658 171.334, 241.699 182.820, 245.570 193.240 C 248.641 201.506, 248.580 198.446, 245.342 181.750 C 243.466 172.081, 242.268 168, 241.306 168 C 240.553 168, 239.658 168.728, 239.316 169.618 M 347.750 173.749 C 345.688 175.136, 344 176.733, 344 177.298 C 344 177.863, 345.446 180.579, 347.214 183.334 C 349.827 187.405, 350.429 189.363, 350.429 193.789 C 350.429 198.538, 350.063 199.549, 347.574 201.690 C 344.458 204.370, 341.028 204.221, 337.744 201.262 C 336.778 200.391, 335.711 199.955, 335.374 200.293 C 334.122 201.545, 336.054 205.748, 339.522 209.320 C 342.564 212.452, 343.746 213, 347.459 213 C 351.071 213, 352.253 212.488, 354.325 210.025 C 357.949 205.719, 359.465 200.459, 359.377 192.500 C 359.294 184.977, 356.341 175.490, 353.229 172.749 C 351.665 171.372, 351.142 171.468, 347.750 173.749 M 102.811 178.890 C 95.570 180.411, 82.478 187.969, 72.002 196.675 C 65.805 201.825, 51 223.435, 51 227.331 C 51 229.879, 51.986 229.376, 55.855 224.856 C 60.313 219.648, 67.307 216.503, 77.867 214.959 C 83.953 214.069, 87.142 214.050, 90.452 214.884 C 92.891 215.498, 96.204 216, 97.815 216 C 101.188 216, 113.925 219.997, 121.397 223.400 C 124.204 224.678, 127.625 226.077, 129 226.508 C 132.341 227.556, 138.836 231.627, 142.342 234.871 C 149.061 241.088, 150.799 250.983, 147.108 262 C 143.732 272.075, 131.230 295.304, 120.128 312.129 C 114.094 321.274, 107.941 331.156, 106.455 334.088 C 104.969 337.020, 101.399 343.263, 98.521 347.960 C 91.375 359.624, 78.583 384.610, 77.255 389.500 C 76.658 391.700, 74.977 397.709, 73.520 402.852 C 69.661 416.477, 71.491 416.526, 79.058 403 C 90.045 383.363, 101.686 371.182, 115.052 365.339 C 116.455 364.726, 121.022 361.473, 125.201 358.112 C 129.379 354.750, 133.190 352, 133.668 352 C 134.146 352, 138.874 347.613, 144.175 342.250 C 163.551 322.649, 189 279.424, 189 266.117 C 189 263.547, 188.100 254.269, 187 245.500 C 185.900 236.731, 185 228.343, 185 226.859 C 185 223.248, 177.428 208.804, 172.722 203.437 C 167.865 197.899, 161.503 193.319, 151.500 188.158 C 137.200 180.780, 131.829 179.232, 118.500 178.644 C 111.900 178.354, 104.840 178.464, 102.811 178.890 M 207.705 188.091 C 204.769 195.016, 199.291 201.243, 195 202.535 C 193.625 202.949, 191.506 203.938, 190.292 204.732 L 188.083 206.175 190.590 212.837 C 191.969 216.500, 193.520 219.920, 194.036 220.436 C 196.337 222.737, 206.907 208.569, 209.473 199.741 C 210.441 196.412, 210.978 191.586, 210.800 187.823 L 210.500 181.500 207.705 188.091 M 291.200 188.200 C 289.715 189.685, 289.595 201.631, 291.055 202.534 C 294.640 204.750, 317 201.743, 317 199.045 C 317 198.125, 314.995 196.971, 304.500 191.848 C 301.200 190.238, 297.719 188.488, 296.764 187.960 C 294.436 186.673, 292.649 186.751, 291.200 188.200 M 101.500 189.634 C 94.210 191.451, 78 201.679, 78 204.463 C 78 205.529, 80.207 205.972, 87.250 206.321 C 98.546 206.881, 101.802 207.492, 109.500 210.497 C 112.800 211.785, 117.911 213.575, 120.858 214.475 C 123.805 215.375, 127.958 217.211, 130.088 218.556 C 132.218 219.900, 134.463 221, 135.076 221 C 135.690 221, 139.111 223.562, 142.677 226.693 C 155.834 238.244, 157.547 247.871, 150.029 268 C 143.722 284.883, 131.182 308.809, 121.614 322.215 C 113.899 333.025, 109.857 339.552, 100.054 357.033 C 96.071 364.136, 92.674 372, 93.590 372 C 94.093 372, 102.672 365.381, 104 363.968 C 105.645 362.219, 113.594 357, 114.614 357 C 115.284 357, 115.983 356.663, 116.167 356.250 C 116.350 355.837, 119.654 352.950, 123.508 349.834 C 127.363 346.718, 132.491 342.062, 134.905 339.487 C 141.834 332.094, 155 313.879, 155 311.686 C 155 309.324, 155.130 309.191, 142.941 324 C 138.640 329.225, 132.732 336.026, 129.811 339.113 C 124.387 344.847, 110.665 354.388, 108.759 353.753 C 108.178 353.559, 113.083 348.023, 119.660 341.450 C 126.237 334.878, 133.842 326.354, 136.559 322.509 C 139.277 318.664, 143.800 313.039, 146.610 310.009 C 153.073 303.043, 157.064 298.315, 159.703 294.500 C 162.948 289.808, 168 279.441, 168 277.471 C 168 275.802, 167.867 275.810, 165.893 277.595 C 164.734 278.643, 160.559 284, 156.614 289.500 C 146.394 303.750, 134.269 318.786, 132.032 319.983 C 128.481 321.883, 128.743 319.093, 132.905 310.692 C 135.581 305.290, 139.471 299.724, 144.240 294.474 C 153.314 284.484, 157.046 278.680, 161.650 267.397 C 164.838 259.584, 165.293 257.404, 165.390 249.500 C 165.490 241.282, 165.252 240.087, 162.650 235.741 C 158.925 229.522, 145.719 217.316, 140 214.806 C 137.525 213.720, 133.700 212.520, 131.500 212.138 C 126.828 211.328, 126.184 209.105, 130.230 207.757 C 134.621 206.293, 142.777 209.276, 151.118 215.395 C 155.178 218.374, 158.654 220.662, 158.842 220.481 C 160.206 219.161, 146.149 207.008, 140.434 204.566 C 134.244 201.921, 120.350 199.624, 110 199.536 C 101.305 199.461, 99.555 199.192, 99.821 197.973 C 100.492 194.900, 102.271 194.503, 114.312 194.735 C 123.812 194.918, 128.595 195.544, 136 197.575 C 145.741 200.247, 157.525 203.763, 159.750 204.662 C 160.495 204.963, 161 204.380, 161 203.219 C 161 200.222, 153.113 195.394, 141 190.974 C 137.498 189.696, 105.594 188.614, 101.500 189.634 M 244.500 222.995 C 242.850 223.484, 236.775 224.346, 231 224.909 C 225.225 225.473, 214.228 226.627, 206.562 227.475 C 198.896 228.322, 191.753 228.739, 190.687 228.401 C 187.651 227.437, 187.310 229.276, 188.582 239.739 C 189.706 248.987, 191.459 255, 193.032 255 C 193.422 255, 194.802 253.454, 196.097 251.564 C 204.537 239.247, 235.589 229.075, 265.181 228.934 C 283.979 228.845, 308.977 232.504, 321.106 237.120 C 324.073 238.249, 327.850 239.549, 329.500 240.009 C 336.634 241.999, 355.272 248.872, 356.288 249.888 C 356.900 250.500, 357.792 251, 358.271 251 C 359.235 251, 367.658 257.884, 372.214 262.396 C 374.833 264.990, 375.296 265.133, 376.662 263.767 C 378.424 262.004, 380.997 249.629, 380.999 242.905 C 381 237.290, 378.929 235.075, 374.500 235.954 C 369.531 236.941, 331.738 230.937, 323.988 227.930 C 320.294 226.496, 311.758 225.005, 301 223.916 C 287.691 222.567, 248.115 221.923, 244.500 222.995 M 412.656 234.133 C 410.111 235.612, 408 241.096, 408.003 246.218 C 408.005 251.253, 412.442 268.500, 414.570 271.747 C 416.707 275.009, 421.435 274.792, 423.704 271.329 C 425.056 269.265, 425.445 266.591, 425.414 259.579 C 425.366 248.542, 423.023 239.869, 419.006 235.852 C 415.862 232.708, 415.347 232.569, 412.656 234.133 M 413.855 239.676 C 412.152 241.729, 412.280 253.292, 414.052 257.500 C 415.134 260.070, 415.372 260.213, 415.713 258.500 C 416.638 253.863, 418.321 251, 420.121 251 C 422.425 251, 422.489 249.263, 420.380 243.991 C 418.403 239.051, 415.801 237.330, 413.855 239.676 M 282.635 249.073 C 281.081 250.295, 280 252.141, 280 253.573 C 280 255.597, 279.507 256, 277.035 256 C 272.964 256, 271.589 258.932, 271.643 267.500 C 271.689 274.897, 274.352 282.154, 277.457 283.345 C 278.306 283.671, 279 284.428, 279 285.027 C 279 285.627, 280.443 287.912, 282.206 290.106 C 284.883 293.438, 285.477 295.134, 285.812 300.395 C 286.179 306.148, 285.983 306.926, 283.561 309.348 C 280.341 312.568, 279.176 312.627, 274.401 309.809 L 270.687 307.618 271.413 310.559 C 272.402 314.570, 277.706 319.854, 281.446 320.556 C 288.920 321.958, 293.696 316.010, 294.699 304.051 C 295.366 296.096, 293.741 288.165, 290.334 282.750 C 287.799 278.720, 286.021 278.122, 283.643 280.500 C 281.929 282.214, 280 282.479, 280 281 C 280 280.450, 280.374 280, 280.831 280 C 281.288 280, 282.246 278.909, 282.959 277.576 C 284.093 275.457, 283.972 274.691, 281.997 271.495 C 278.904 266.490, 279.632 257.910, 283.475 254.077 L 286.059 251.500 290.029 253.667 C 294.312 256.004, 294.817 255.481, 292.537 251.072 C 290.184 246.521, 286.758 245.829, 282.635 249.073 M 306.281 267 C 306.749 285.216, 305.713 305.955, 303.538 321.914 C 302.753 327.673, 304.893 324.043, 308.581 313.362 C 312.759 301.259, 314.891 280.721, 312.962 271.157 C 311.522 264.017, 307.007 247.664, 306.292 247 C 305.996 246.725, 305.991 255.725, 306.281 267 M 275 250.417 C 275 252.097, 275.549 253, 276.570 253 C 277.612 253, 278.032 252.271, 277.820 250.828 C 277.348 247.627, 275 247.284, 275 250.417 M 250.753 268.500 C 251.185 287.589, 251.397 289.490, 252.993 288.504 C 254.381 287.646, 254.329 287.889, 251.500 295.404 C 250.125 299.057, 249.033 303.273, 249.073 304.773 C 249.153 307.765, 251.953 313.190, 253.515 313.380 C 255.114 313.575, 260.033 302.741, 260.185 298.690 C 260.281 296.132, 259.759 294.544, 258.525 293.642 C 257.049 292.563, 256.903 291.800, 257.712 289.413 L 258.700 286.500 259.429 289.750 C 260.189 293.133, 263.007 294.320, 262.991 291.250 C 262.986 290.288, 262.284 284.325, 261.431 278 C 260.578 271.675, 259.625 263.021, 259.313 258.770 C 259.001 254.518, 258.372 251.270, 257.916 251.552 C 257.460 251.833, 257.257 252.612, 257.465 253.282 C 257.673 253.952, 258.130 261.137, 258.482 269.250 C 259.029 281.880, 258.908 284, 257.644 284 C 256.831 284, 255.966 284.563, 255.720 285.250 C 254.655 288.232, 253.766 284.341, 252.880 272.831 C 251.222 251.269, 250.322 249.436, 250.753 268.500 M 329.510 261.750 C 326.568 274.977, 327.002 274.286, 320.676 275.830 L 315 277.216 315 285.036 C 315 293.795, 316.197 296, 320.949 296 C 322.492 296, 324.283 296.636, 324.929 297.414 C 325.586 298.207, 326.323 303.592, 326.603 309.664 C 326.879 315.624, 327.391 322.075, 327.741 324 C 328.353 327.363, 328.405 327.285, 329.090 322 C 330.186 313.535, 330.129 297.198, 329 296.500 C 328.450 296.160, 328 292.781, 328 288.991 C 328 283.611, 328.364 281.896, 329.659 281.171 C 331.032 280.403, 331.400 277.979, 331.792 267.121 C 332.052 259.905, 332.033 254, 331.750 254 C 331.466 254, 330.458 257.488, 329.510 261.750 M 231.990 257.083 C 231.984 257.863, 231.516 263.778, 230.950 270.228 C 230.249 278.226, 230.246 285.117, 230.941 291.891 C 232.886 310.843, 240.809 323.834, 248.653 320.933 C 251.833 319.756, 252.223 318.489, 250.853 313.771 C 249.422 308.838, 247.733 305.846, 243.727 301.139 C 238.998 295.583, 236.611 287.353, 234.422 269.050 C 233.117 258.139, 232.021 252.749, 231.990 257.083 M 208.452 258.765 C 205.711 260.686, 203.216 265.677, 203.708 268.253 C 204.127 270.443, 203.764 271.139, 201.822 271.878 C 197.563 273.497, 196.676 275.493, 197.276 282.111 C 197.925 289.269, 202.347 297.500, 205.543 297.500 C 206.619 297.500, 208.088 298.288, 208.807 299.250 C 209.525 300.212, 210.684 301, 211.382 301 C 213.647 301, 217.233 305.798, 217.883 309.697 C 218.880 315.676, 218.111 318.736, 214.768 322.078 C 212.271 324.575, 211.017 325.104, 208.333 324.791 C 205.661 324.479, 205 324.754, 205 326.178 C 205 330.725, 215.564 332.869, 220.445 329.313 C 229.148 322.972, 229.090 301.640, 220.344 291.959 C 218.377 289.781, 216.204 288, 215.517 288 C 214.829 288, 213.047 289.841, 211.558 292.092 C 208.157 297.231, 207.356 296.657, 209.923 290.923 L 211.882 286.547 208.845 284.012 C 203.118 279.230, 203.989 266.608, 210.272 263.360 C 212.634 262.138, 213.799 262.018, 215.142 262.857 C 217.539 264.353, 218.259 262.814, 216.402 260.163 C 214.894 258.011, 210.604 257.257, 208.452 258.765 M 353.636 259.506 C 352.903 261.415, 353.930 264.161, 355.105 263.435 C 355.597 263.131, 356 262.035, 356 261 C 356 258.581, 354.383 257.559, 353.636 259.506 M 198.499 265.250 C 197.476 267.762, 198.729 270.671, 200.200 269.200 C 201.017 268.383, 201.038 267.426, 200.273 265.783 C 199.326 263.747, 199.135 263.689, 198.499 265.250 M 351.293 267.250 C 350.769 267.938, 350.263 270.300, 350.169 272.500 C 350.074 274.700, 349.728 278.216, 349.400 280.312 C 348.782 284.261, 350.811 288, 353.572 288 C 356.279 288, 358.245 269.645, 355.800 267.200 C 354.253 265.653, 352.494 265.673, 351.293 267.250 M 346.620 270.750 C 346.267 272.813, 345.686 278.734, 345.328 283.909 C 344.815 291.331, 344.943 293.153, 345.934 292.541 C 346.914 291.935, 347.057 293.163, 346.586 298.132 C 345.424 310.401, 344.821 333, 345.656 332.981 C 346.702 332.957, 353.734 310.146, 354.591 304 C 354.935 301.525, 355.780 298.825, 356.468 298 C 359.196 294.727, 362.453 271, 360.174 271 C 358.934 271, 358.439 273.703, 357.245 287 C 356.506 295.235, 356.246 296.157, 355.288 293.925 C 354.680 292.508, 353.099 290.640, 351.775 289.772 C 349.571 288.328, 349.265 288.335, 348.159 289.847 C 347.184 291.181, 347.058 290.341, 347.511 285.500 C 347.820 282.200, 348.333 276.688, 348.653 273.250 C 349.290 266.388, 347.701 264.433, 346.620 270.750 M 329.506 285.991 C 328.770 287.182, 330.658 290, 332.192 290 C 333.520 290, 332.753 285.740, 331.342 285.276 C 330.705 285.066, 329.878 285.388, 329.506 285.991 M 206 341 C 206 342.100, 206.450 343, 207 343 C 207.550 343, 208 342.100, 208 341 C 208 339.900, 207.550 339, 207 339 C 206.450 339, 206 339.900, 206 341 M 234.444 342.176 C 234.038 343.455, 234.306 344.579, 235.143 345.110 C 236.141 345.742, 236.170 345.973, 235.250 345.985 C 234.356 345.996, 234 348.263, 234 353.941 C 234 363.834, 235.530 365.329, 238.921 358.750 C 240.858 354.991, 242 355.300, 242 359.583 C 242 363.923, 244.181 363.808, 245.132 359.418 C 246.663 352.346, 245.722 340.593, 243.679 341.274 C 243.098 341.467, 242.094 343.974, 241.448 346.843 C 240.802 349.713, 239.999 352.334, 239.664 352.669 C 238.568 353.765, 237.285 348.580, 237.740 344.893 C 238.257 340.704, 235.605 338.518, 234.444 342.176 M 249.882 341.250 C 249.816 341.938, 249.858 342.950, 249.973 343.500 C 250.200 344.577, 248.314 353.765, 246.949 358.236 C 246.343 360.221, 246.530 361.387, 247.628 362.486 C 250.254 365.111, 251.318 364.299, 250.557 360.250 C 250.170 358.188, 249.853 356.050, 249.852 355.500 C 249.852 354.551, 251.434 345.629, 251.980 343.500 C 252.460 341.631, 252.003 340, 251 340 C 250.450 340, 249.947 340.563, 249.882 341.250 M 308.391 341.423 C 308.091 342.205, 308.780 343.780, 309.923 344.923 C 311.448 346.448, 312.036 348.394, 312.137 352.250 L 312.274 357.500 312.981 351.290 C 313.370 347.875, 314.247 344.407, 314.930 343.584 C 315.613 342.761, 315.882 341.618, 315.527 341.044 C 314.564 339.486, 309.022 339.780, 308.391 341.423 M 162.639 341.694 C 162.288 342.046, 162 343.587, 162 345.120 C 162 346.652, 161.463 349.085, 160.806 350.527 C 159.880 352.559, 159.880 353.578, 160.806 355.061 C 161.463 356.112, 162 358.366, 162 360.070 C 162 362.103, 162.429 363.024, 163.250 362.750 C 165.145 362.119, 165.365 359.061, 163.651 357.166 C 162.029 355.374, 162.425 347, 164.132 347 C 165.258 347, 165.265 342.282, 164.139 341.586 C 163.666 341.294, 162.991 341.342, 162.639 341.694 M 166.686 345.153 C 164.518 350.830, 164.431 355.156, 166.500 354.362 C 167.635 353.926, 168 354.542, 168 356.893 C 168 358.602, 168.430 360, 168.955 360 C 169.507 360, 169.730 357.273, 169.483 353.534 C 169.147 348.457, 169.383 346.885, 170.583 346.213 C 171.924 345.463, 171.882 345.075, 170.241 343.049 L 168.371 340.740 166.686 345.153 M 174.583 342.645 C 173.588 345.237, 174.089 353.308, 175.504 357.500 C 176.842 361.462, 176.851 361.431, 176.456 354.208 C 176.154 348.694, 176.388 346.788, 177.418 346.393 C 179.038 345.771, 178.369 342.355, 176.484 341.632 C 175.759 341.354, 174.903 341.810, 174.583 342.645 M 254.289 343.750 C 252.703 349.572, 253.808 362, 255.912 362 C 257.406 362, 258.093 358.817, 256.907 357.388 C 256.209 356.547, 255.924 353.171, 256.159 348.515 C 256.543 340.924, 255.667 338.693, 254.289 343.750 M 199.464 348.490 C 199.075 352.121, 199.037 355.370, 199.379 355.712 C 199.720 356.054, 200 355.358, 200 354.167 C 200 351.503, 201.647 351.313, 202.462 353.881 C 203.134 355.997, 206.374 360, 207.415 360 C 208.682 360, 207.556 347.677, 206.250 347.246 C 205.563 347.019, 205 347.546, 205 348.417 C 205 351.664, 203.109 349.859, 202.810 346.327 C 202.271 339.950, 200.238 341.264, 199.464 348.490 M 274.464 348.490 C 274.075 352.121, 274.037 355.370, 274.379 355.712 C 274.720 356.054, 275 355.358, 275 354.167 C 275 352.975, 275.450 352, 276 352 C 276.550 352, 277 352.482, 277 353.071 C 277 353.661, 277.669 354.812, 278.487 355.629 C 279.802 356.945, 279.912 356.793, 279.445 354.308 C 279.154 352.764, 278.591 349.510, 278.194 347.079 C 277.071 340.203, 275.279 340.881, 274.464 348.490 M 186.969 344.691 C 186.952 345.686, 186.503 349.853, 185.971 353.952 C 185.333 358.873, 185.343 361.743, 186.002 362.402 C 186.666 363.066, 187 362.014, 187 359.259 C 187 356.981, 187.450 354.840, 188 354.500 C 188.550 354.160, 189 354.846, 189 356.024 C 189 359.294, 191.453 357.817, 191.801 354.338 C 191.982 352.528, 191.484 350.817, 190.551 350.042 C 189.698 349.334, 189 347.712, 189 346.437 C 189 345.161, 188.550 343.840, 188 343.500 C 187.450 343.160, 186.986 343.696, 186.969 344.691 M 261.248 351.750 C 260.629 356.848, 260.551 361.126, 261.062 362 C 261.711 363.109, 261.965 362.719, 262.040 360.500 C 262.095 358.850, 262.483 356.624, 262.902 355.554 C 263.629 353.696, 263.690 353.707, 264.238 355.804 C 264.554 357.012, 265.305 358, 265.906 358 C 267.503 358, 267.183 351.826, 265.468 349.559 C 264.661 348.491, 264 346.579, 264 345.309 C 264 344.039, 263.620 343, 263.156 343 C 262.691 343, 261.833 346.938, 261.248 351.750 M 298.186 352.225 C 297.449 358.216, 297.392 361.792, 298.025 362.425 C 298.658 363.058, 299 361.948, 299 359.259 C 299 354.802, 300.442 352.759, 301.293 356.011 C 302.150 359.290, 304 358.257, 304 354.500 C 304 352.575, 303.555 351, 303.012 351 C 302.468 351, 301.736 349.200, 301.384 347 C 301.032 344.800, 300.424 343, 300.033 343 C 299.642 343, 298.811 347.151, 298.186 352.225 M 192 346.878 C 192 348.461, 192.675 351.371, 193.500 353.346 C 194.325 355.320, 195 358.049, 195 359.409 C 195 361.918, 196.601 363.732, 197.777 362.557 C 198.306 362.027, 196.729 354.284, 194.352 345.750 C 193.577 342.966, 192 343.722, 192 346.878 M 210.220 353 C 210.297 358.225, 210.529 360.363, 210.735 357.750 C 210.941 355.137, 211.476 353, 211.925 353 C 212.373 353, 213.310 355.037, 214.007 357.526 C 216.165 365.233, 216.985 364.577, 218.942 353.581 C 220.192 346.550, 219.639 345.137, 217.903 350.930 C 217.223 353.199, 216.246 354.915, 215.732 354.744 C 215.217 354.572, 213.735 351.972, 212.438 348.966 L 210.080 343.500 210.220 353 M 267.667 344.667 C 266.715 345.618, 266.841 350.784, 267.831 351.395 C 268.288 351.678, 269.220 354.404, 269.902 357.454 C 271.087 362.749, 272.364 364.407, 273.238 361.786 C 273.598 360.706, 269.549 345.216, 268.680 344.346 C 268.489 344.156, 268.033 344.300, 267.667 344.667 M 304 347.066 C 304 348.752, 304.533 351.114, 305.185 352.316 C 305.837 353.517, 306.626 356.038, 306.939 357.918 C 307.251 359.798, 308.097 361.532, 308.819 361.773 C 310.200 362.233, 309.789 357.288, 308.006 352 C 307.542 350.625, 306.892 348.262, 306.562 346.750 C 305.752 343.038, 304 343.254, 304 347.066 M 281 352.441 C 281 356.534, 281.450 360.160, 282 360.500 C 282.595 360.868, 283 359.677, 283 357.559 C 283 352.750, 284.662 353.040, 285.499 357.995 C 285.870 360.192, 286.561 362.228, 287.033 362.520 C 288.061 363.156, 289.854 357.249, 290.531 351 L 291.018 346.500 289.426 350.750 C 288.550 353.087, 287.439 355, 286.958 355 C 286.476 355, 285.283 352.750, 284.306 350 C 283.330 347.250, 282.186 345, 281.765 345 C 281.344 345, 281 348.348, 281 352.441 M 243 351 C 243 353.750, 243.450 356, 244 356 C 244.550 356, 245 353.750, 245 351 C 245 348.250, 244.550 346, 244 346 C 243.450 346, 243 348.250, 243 351 M 235 356 C 235 358.089, 235.425 359.025, 236.250 358.750 C 236.938 358.521, 237.500 357.283, 237.500 356 C 237.500 354.717, 236.938 353.479, 236.250 353.250 C 235.425 352.975, 235 353.911, 235 356" stroke="none" fill="black" fill-rule="evenodd"/>
</svg>