<?xml version="1.0" encoding="UTF-8"?><svg id="a" xmlns="http://www.w3.org/2000/svg" viewBox="0 0 800 600.7"><path d="M117.14,341.19c-3.92-4.91-7.4-9-10.55-13.33-1.82-2.51-3.6-5.25-4.5-8.17-1-3.25,.6-6.18,3.98-7.16,3.63-1.05,7.41-1.85,11.17-2.03,2.34-.12,3.33-.77,4.45-2.76,21.27-37.64,46.65-72.05,80.41-99.56,21-17.11,44.56-29.44,70.97-36.1,1.39-.35,3.19-1.6,3.62-2.84,9.48-27.25,29.26-44.52,54.48-56.53,18.45-8.79,38.03-14.06,58.09-17.28,31.87-5.12,63.85-9.5,95.74-14.48,24.14-3.77,46.42-12.62,66.92-25.92,.53-.35,1.09-.65,2.88-1.72,0,7.26,.52,13.68-.09,19.99-2.31,23.86-12.2,44.02-30.61,59.65-12.23,10.38-26.85,15.37-42.42,17.82-11.58,1.82-23.22,3.25-34.82,4.89-.99,.14-1.94,.6-3.52,1.11,22.39,3.86,44.1,7.43,67.35,3.46-12.53,18.72-30.06,26.24-50.91,28.66,6.31,4.3,12.35,8.15,18.11,12.38,22.47,16.49,41.19,36.67,57.53,59.14,6.3,8.66,18.26,11.85,27.51,6.32,3.39-2.03,5.97-6.27,7.7-10.06,5.13-11.25,9.57-22.82,14.43-34.2,11.44-26.82,26.98-50.77,49.34-69.87,22.3-19.05,47.87-31.03,76.98-35.11,8.2-1.15,16.47-1.77,25.56-2.72-3.22,6.61-6.09,12.31-8.8,18.1-15.68,33.48-28.52,67.98-37.09,103.99-6.37,26.78-8.46,53.91-6.3,81.38,3.53,44.9,17.22,86.89,36.27,127.34,4.02,8.54,8.61,16.82,13.13,25.6-6.76,0-13.31,.36-19.82-.06-26.83-1.75-51.59-9.97-74.03-24.82-23.66-15.66-42.05-36.35-56.65-60.5-5.04-8.34-9.62-16.95-14.4-25.45-5.52-9.8-16.22-14.13-26.62-9.85-3.52,1.45-6.31,4.99-9.04,7.95-12.52,13.59-24.4,27.8-37.49,40.8-8.46,8.4-18.62,15.1-28.02,22.55-.79,.62-1.6,1.21-3.14,2.37,19.74,.14,36.08,5.97,48.43,21.6-17.11,2.44-33.67,4.8-50.23,7.17l.07,.65c12.17,1.4,24.35,2.8,36.52,4.2,16.75,1.94,33.07,5.22,47.22,15.23,16.87,11.93,26.11,28.59,30.12,48.49,.33,1.65,.55,3.31,.84,5.07-6.96-2.37-13.47-5.61-20.32-6.7-14.29-2.27-28.74-3.89-43.18-4.91-31.62-2.22-63.04-5.39-93.18-15.93-21.6-7.56-39.59-20.2-52.63-39.36-.56-.83-2.07-1.56-3.05-1.46-9.45,.94-18.87,2.06-28.62,3.17,3.83,10.27,10.23,18.73,18.73,25.7,11.54,9.46,25.52,13.47,39.47,17.37,13.42,3.75,26.97,7.05,40.46,10.57,.97,.25,1.9,.65,3.78,1.31-7.14,1.6-13.39,3.03-19.66,4.4-12.15,2.66-24.38,4.66-36.87,3.85-35.24-2.29-60.59-19.21-75.5-51.39-1.21-2.62-2.37-5.31-3.12-8.09-.76-2.83-2.13-3.88-5.15-4.06-48.38-2.94-91.41-20.09-129.88-49.23-15.72-11.91-30.99-24.35-43.62-39.61-5.16-6.24-9.72-12.85-17.28-16.65-2.05-1.03-3.65-3.47-4.82-5.61-2.47-4.55-.42-8.27,4.68-8.74,2.62-.24,5.27-.04,9-.04Zm572.15,97.17c-5.39-4.95-10.81-9.86-16.15-14.86-20.38-19.07-38.17-40.12-50.4-65.48-8.95-18.55-15.75-37.69-15.4-58.63,.28-16.27,4.47-31.74,10.57-46.73,13.48-33.14,33.74-61.64,59.19-86.61,4.73-4.64,9.21-9.55,14.34-14.89-2.77,1.42-4.95,2.51-7.11,3.65-32.11,17-56.56,41.33-70.41,75.25-13.65,33.41-17.06,68.05-10.56,103.62,6.31,34.51,21.71,63.62,50.13,85.13,10.96,8.3,22.89,14.77,35.81,19.55ZM525.75,95.52c-5.78,2.16-10.94,4.37-16.27,6.04-21.34,6.69-43.6,8.4-65.52,11.97-20.63,3.36-41.38,6.26-61.81,10.6-18.56,3.94-36.53,10.15-52.12,21.61-3.29,2.42-6.23,5.33-9.34,8.01,3.3-.79,5.96-2.39,8.76-3.72,21.75-10.35,45.15-14.01,68.77-16.54,24.38-2.61,48.83-4.64,73.2-7.37,11.27-1.26,22.3-4.08,32.35-9.63,8.99-4.96,16.44-11.61,21.97-20.96ZM202.11,279.83c-16.36,.08-28.99,12.88-28.87,29.23,.11,15.34,13.34,28.35,28.74,28.28,15.99-.08,29.29-13.31,29-28.87-.29-15.82-13.3-28.73-28.88-28.65Zm102.91,81.55c.94-1.07,1.89-2.14,2.83-3.21,9.79-11.14,20.89-20.79,34.93-25.9,10.7-3.89,21.88-6.6,32.99-9.24,13.99-3.33,26.95-8.34,36.88-19.27,4.48-4.93,7.95-10.48,10-15.67-7.34,3.01-14.92,6.69-22.87,9.2-7.36,2.33-15.09,3.51-22.7,5.04-22.33,4.48-42.01,13.65-56.66,31.79-6.63,8.21-11.83,17.23-15.4,27.25Zm3.05,10c4.12,0,7.36,.07,10.61-.01,19.65-.51,39.34-.45,58.93-1.77,16.78-1.13,34.21-18.8,36.46-35.46-8.04,8.02-17.9,11.74-28.62,13.45-10.65,1.7-21.37,3.03-32.02,4.74-16.3,2.62-31.72,7.46-45.37,19.05Zm230.9,123.72l.48-1.37c-5.18-2.73-10.2-5.84-15.57-8.11-16.68-7.03-34.67-8.18-52.25-11.22-15.52-2.68-31.01-5.56-46.41-8.83-5.68-1.21-11.07-3.77-17.63-6.08,1.85,1.54,2.83,2.4,3.86,3.21,10.08,7.86,21.46,13.23,33.48,17.3,16.39,5.56,33.29,8.7,50.49,10.42,14.53,1.46,29.04,3.11,43.57,4.68Zm-142.58-107.84c-13.22,8.31-22.15,11.26-35.24,10.97-18.7-.42-35.37-7.32-51.17-16.74-1.26-.75-2.47-1.57-3.7-2.36l-.72,.88c3.32,4.02,6.4,8.29,10.01,12.03,11.22,11.62,24.3,19.76,40.93,20.8,16.14,1.01,34.1-10.29,39.89-25.57Zm288.17-166.39c-19.47,.48-32.23,11.15-43.43,25.42,19.07-4.6,36.41-13.74,43.43-25.42Zm-42.5,109.16c14.69,18.05,28.64,26.15,40.19,23.55-8.1-12.81-24.06-21.63-40.19-23.55Zm.14-49.37c14.53,2.15,31.3-3.5,36.16-12.13-14.07-2-25.06,4.65-36.16,12.13Zm-.72,19.92c11.55,6.14,23.11,12.24,37.33,9.27-10.5-11.96-23.94-10.51-37.33-9.27Z"/><path d="M201.56,323.76c-8.44-.03-15.55-7.13-15.36-15.34,.18-8.19,7.19-14.86,15.54-14.8,8.52,.06,15.34,6.96,15.23,15.41-.11,8.3-6.86,14.77-15.41,14.73Z"/></svg>