<?xml version="1.0" ?>
<!DOCTYPE svg  PUBLIC '-//W3C//DTD SVG 1.1//EN'  'http://www.w3.org/Graphics/SVG/1.1/DTD/svg11.dtd'>
<!-- Uploaded to: SVG Repo, www.svgrepo.com, Generator: SVG Repo Mixer Tools -->
<svg width="800px" height="800px" viewBox="0 0 64 64" enable-background="new 0 0 64 64" id="Layer_1" version="1.1" xml:space="preserve" xmlns="http://www.w3.org/2000/svg" xmlns:xlink="http://www.w3.org/1999/xlink">
<g>
<path d="M57.679,8.114L57.679,8.114c-0.246-0.308-0.569-0.53-0.908-0.665c-0.339-0.135-0.694-0.19-1.046-0.19   c-1.004,0.008-2.029,0.423-2.943,1.149h0L39.758,18.88c-0.027,0.021-0.039,0.053-0.063,0.076l-26.11,21.605h0   c-0.763,0.635-1.453,1.514-2.03,2.469c-0.573,0.958-1.025,1.979-1.228,2.951l-2.444,11.9c-0.003,0.016,0.002,0.03,0,0.046   c-0.011,0.07-0.005,0.14-0.001,0.211c0.003,0.061,0.001,0.12,0.015,0.178c0.014,0.059,0.043,0.111,0.068,0.167   c0.029,0.064,0.054,0.128,0.096,0.185c0.01,0.013,0.012,0.029,0.022,0.042c0.03,0.037,0.071,0.056,0.105,0.087   c0.05,0.048,0.098,0.095,0.158,0.132c0.061,0.037,0.125,0.058,0.19,0.081c0.043,0.015,0.079,0.043,0.125,0.053   c0.016,0.003,0.031-0.002,0.047,0c0.069,0.011,0.136,0.005,0.207,0.001c0.062-0.003,0.123-0.001,0.182-0.016   c0.057-0.014,0.107-0.043,0.162-0.066c0.066-0.029,0.131-0.056,0.189-0.098c0.013-0.01,0.028-0.012,0.041-0.021l35.975-28.928h0   c0.982-0.791,1.496-1.958,1.495-3.126c0.001-0.869-0.285-1.753-0.871-2.481c-0.674-0.838-1.261-1.568-1.589-1.977l11.84-9.518h0   c0.552-0.444,0.994-0.96,1.311-1.511c0.314-0.552,0.512-1.141,0.515-1.761C58.168,9.07,58.023,8.541,57.679,8.114z M44.96,26.809   c-0.001,0.59-0.256,1.172-0.749,1.567h0l-33.81,27.187l1.885-9.179c0.129-0.645,0.499-1.522,0.983-2.323   c0.479-0.803,1.081-1.541,1.59-1.958h0l25.787-21.338l1.66,2.063c0,0.001,0,0.002,0.001,0.003s0.002,0.001,0.003,0.002l0.416,0.518   c0.008,0.01,0.02,0.014,0.028,0.023c0.235,0.293,0.939,1.168,1.775,2.208C44.82,25.941,44.959,26.37,44.96,26.809z M55.916,10.326   c-0.18,0.315-0.463,0.654-0.83,0.948h0l-11.846,9.522l-1.051-1.306l11.846-9.524h0c0.599-0.49,1.284-0.716,1.689-0.708   c0.142,0,0.244,0.023,0.302,0.048l0.092,0.06h0c0.018,0.024,0.044,0.061,0.046,0.195C56.168,9.725,56.099,10.012,55.916,10.326z" fill="#231F20"/>
<path d="M40.172,27.032L17.625,45.095c-0.431,0.345-0.501,0.975-0.155,1.405c0.345,0.432,0.975,0.501,1.405,0.155   l22.547-18.063c0.431-0.345,0.501-0.975,0.155-1.405C41.232,26.756,40.603,26.687,40.172,27.032z" fill="#231F20"/>
</g>
</svg>