<svg xmlns="http://www.w3.org/2000/svg" width="360" height="360" viewBox="0 0 360 360" fill="none">
  <g opacity="0.14">
    <g transform="translate(28 36) rotate(-8 62 42)">
      <path d="M18 26C31 10 49 2 75 2c22 0 39 7 51 22 5 7 8 14 8 24 0 19-14 34-31 34H46C22 82 4 68 4 47c0-8 4-15 14-21Z" fill="#050506"/>
      <path d="M16 43c0-19 15-34 34-34h8c19 0 34 15 34 34S77 77 58 77h-8C31 77 16 62 16 43Z" fill="#6b1016"/>
      <path d="M29 43c0-11 9-20 20-20h8c11 0 20 9 20 20S68 63 57 63h-8c-11 0-20-9-20-20Z" fill="#ece7e0"/>
      <path d="M37 43c0-7 5-12 12-12h7c7 0 12 5 12 12s-5 12-12 12h-7c-7 0-12-5-12-12Z" fill="#0f1012"/>
    </g>

    <g transform="translate(202 42) rotate(10 64 38)">
      <path d="M12 23C24 8 44 0 73 0c19 0 33 5 45 17 8 8 13 18 13 29 0 21-16 36-37 36H40C17 82 0 69 0 47c0-9 4-17 12-24Z" fill="#070708"/>
      <path d="M18 39c6-15 21-26 39-26h11c13 0 26 5 35 13-3 19-18 34-37 34H44c-12 0-22-9-26-21Z" fill="#500d13"/>
      <path d="M27 40c0-10 8-18 18-18h13c10 0 18 8 18 18s-8 18-18 18H45c-10 0-18-8-18-18Z" fill="#ece7e0"/>
      <circle cx="38" cy="40" r="4" fill="#0d0d0f"/>
      <circle cx="51" cy="35" r="3" fill="#0d0d0f"/>
      <circle cx="55" cy="47" r="3.5" fill="#0d0d0f"/>
    </g>

    <g transform="translate(98 196) rotate(4 70 55)">
      <path d="M20 24C35 7 56 0 88 0c20 0 37 6 49 18 9 9 13 20 13 32 0 23-18 40-42 40H50C21 90 0 73 0 49c0-10 6-18 20-25Z" fill="#050506"/>
      <path d="M28 17c8-14 22-17 35-17h16c11 0 22 4 31 12-5 17-15 32-30 44H45c-9-11-15-24-17-39Z" fill="#7c151d"/>
      <path d="M27 48c0-13 10-23 23-23h16c13 0 23 10 23 23S79 71 66 71H50C37 71 27 61 27 48Z" fill="#ece7e0"/>
      <path d="M39 48c0-7 5-13 12-13h13c7 0 12 6 12 13s-5 13-12 13H51c-7 0-12-6-12-13Z" fill="#0c0d0f"/>
      <path d="M82 7c6-9 16-12 24-4-3 8-8 15-16 19" fill="#050506"/>
      <path d="M95 4c5-9 13-11 20-5-2 8-7 14-13 18" fill="#050506"/>
    </g>
  </g>
</svg>
