<svg xmlns="http://www.w3.org/2000/svg" width="520" height="520" viewBox="0 0 520 520" fill="none">
  <g opacity="0.16" transform="translate(34 38) scale(0.23)">
    <path fill="#7b7477" d="M507.668,218.374c-35.324-80.077-114.647-130.695-200.05-130.695H204.38c-91.439,0-167.125,56.059-200.05,130.695
      c-6.947,15.747-5.468,33.78,3.956,48.233c9.408,14.437,25.286,23.057,42.475,23.057c1.445,0,2.863-0.149,4.287-0.269
      c-0.626,5.622-1.031,11.311-1.031,17.101v33.664c0,46.408,37.752,84.16,84.16,84.16h235.648c46.408,0,84.16-37.752,84.16-84.16
      v-33.664c0-5.791-0.405-11.479-1.031-17.101c1.423,0.12,2.84,0.269,4.287,0.269c17.187,0,33.066-8.618,42.473-23.057
      C513.137,252.153,514.617,234.121,507.668,218.374z M183.061,156.701c-52.661,7.753-95.976,42.253-116.378,89.139
      c-0.688,0.744-1.339,1.536-1.901,2.423c-6.196,9.807-21.939,9.731-28.295-0.038c-3.233-4.959-3.726-10.887-1.353-16.262
      c26.729-60.593,83.404-101.736,147.927-109.26V156.701z M295.274,390.656H216.5V121.343h78.774V390.656z M475.511,248.225
      c-6.356,9.769-22.097,9.846-28.295,0.038c-0.562-0.886-1.213-1.68-1.901-2.423c-20.402-46.886-63.717-81.387-116.378-89.139
      v-33.998c64.524,7.524,121.197,48.667,147.927,109.26C479.238,237.337,478.744,243.267,475.511,248.225z"/>
  </g>

  <g opacity="0.14" transform="translate(290 50) scale(0.34)">
    <path d="M152.05 274.635C150.052 255.507 149.769 235.746 149.769 216.153C149.769 163.428 128.74 123.874 188.51 123.874C194.035 123.874 221.023 119.923 224.595 123.495C228.277 127.181 218.974 168.807 218.518 174.76C212.464 253.477 243.685 281.879 156.608 277.294" stroke="#7b7477" stroke-opacity="0.95" stroke-width="16" stroke-linecap="round" stroke-linejoin="round"/>
    <path d="M76.7778 231.871C73.9806 280.061 115.429 270.256 150.354 272.203" stroke="#7b7477" stroke-opacity="0.95" stroke-width="16" stroke-linecap="round" stroke-linejoin="round"/>
    <path d="M218.502 266.491C273.688 267.718 277.862 262.598 283.868 204.056" stroke="#7b7477" stroke-opacity="0.95" stroke-width="16" stroke-linecap="round" stroke-linejoin="round"/>
    <path d="M142.01 191.859C0.241288 255.146 44.4094 128.954 158.699 128.954" stroke="#7b7477" stroke-opacity="0.95" stroke-width="16" stroke-linecap="round" stroke-linejoin="round"/>
    <path d="M229.507 140.08C257.084 142.326 288.307 162.96 314.095 178.775C328.407 187.552 347.844 191.196 347.844 198.09C347.844 217.405 332.353 199.825 325.013 202.262C315.551 205.404 327.106 245.893 317.786 244.345C297.241 240.933 308.375 206.862 300.664 203.018C280.389 192.916 249.774 191.841 226.847 188.234" stroke="#7b7477" stroke-opacity="0.95" stroke-width="16" stroke-linecap="round" stroke-linejoin="round"/>
    <path d="M78.0342 165.114C78.664 173.281 84.0671 175.989 87.7696 179.021" stroke="#7b7477" stroke-opacity="0.52" stroke-width="14" stroke-linecap="round" stroke-linejoin="round"/>
    <path d="M106.778 144.252C107.68 147.557 109.271 150.805 110.483 153.988" stroke="#7b7477" stroke-opacity="0.52" stroke-width="14" stroke-linecap="round" stroke-linejoin="round"/>
    <path d="M238.201 147.034C237.806 151.806 236.203 156.342 234.963 160.941" stroke="#7b7477" stroke-opacity="0.52" stroke-width="14" stroke-linecap="round" stroke-linejoin="round"/>
    <path d="M268.803 165.114C266.984 167.055 266.566 169.91 265.56 172.068" stroke="#7b7477" stroke-opacity="0.52" stroke-width="14" stroke-linecap="round" stroke-linejoin="round"/>
  </g>

  <g opacity="0.16" transform="translate(192 314) scale(5.1)">
    <path d="M21.55,15.82c0,4.3-2.36,5.9-5.73,6.43A24.19,24.19,0,0,1,12,22.5a24.19,24.19,0,0,1-3.82-.25c-3.37-.53-5.73-2.13-5.73-6.43C2.45,10,6.73,1.5,12,1.5S21.55,10,21.55,15.82Z" stroke="#7b7477" stroke-width="1.91" stroke-miterlimit="10" fill="none"/>
    <path d="M15.82,14.86v7.39A24.19,24.19,0,0,1,12,22.5a24.19,24.19,0,0,1-3.82-.25V14.86Z" stroke="#7b7477" stroke-width="1.91" stroke-miterlimit="10" fill="none"/>
    <line x1="6.27" y1="10.09" x2="8.18" y2="10.09" stroke="#7b7477" stroke-width="1.91" stroke-miterlimit="10"/>
    <line x1="11.05" y1="7.23" x2="12.95" y2="7.23" stroke="#7b7477" stroke-width="1.91" stroke-miterlimit="10"/>
    <line x1="13.91" y1="11.05" x2="15.82" y2="11.05" stroke="#7b7477" stroke-width="1.91" stroke-miterlimit="10"/>
  </g>
</svg>
