<?xml version="1.0" encoding="iso-8859-1"?>
<!-- Uploaded to: SVG Repo, www.svgrepo.com, Generator: SVG Repo Mixer Tools -->
<svg fill="#000000" height="800px" width="800px" version="1.1" id="Layer_1" xmlns="http://www.w3.org/2000/svg" xmlns:xlink="http://www.w3.org/1999/xlink" 
	 viewBox="0 0 511.999 511.999" xml:space="preserve">
<g>
	<g>
		<path d="M507.668,218.374c-35.324-80.077-114.647-130.695-200.05-130.695H204.38c-91.439,0-167.125,56.059-200.05,130.695
			c-6.947,15.747-5.468,33.78,3.956,48.233c9.408,14.437,25.286,23.057,42.475,23.057c1.445,0,2.863-0.149,4.287-0.269
			c-0.626,5.622-1.031,11.311-1.031,17.101v33.664c0,46.408,37.752,84.16,84.16,84.16h235.648c46.408,0,84.16-37.752,84.16-84.16
			v-33.664c0-5.791-0.405-11.479-1.031-17.101c1.423,0.12,2.84,0.269,4.287,0.269c17.187,0,33.066-8.618,42.473-23.057
			C513.137,252.153,514.617,234.121,507.668,218.374z M183.061,156.701c-52.661,7.753-95.976,42.253-116.378,89.139
			c-0.688,0.744-1.339,1.536-1.901,2.423c-6.196,9.807-21.939,9.731-28.295-0.038c-3.233-4.959-3.726-10.887-1.353-16.262
			c26.729-60.593,83.404-101.736,147.927-109.26V156.701z M295.274,390.656H216.5V121.343h78.774V390.656z M475.511,248.225
			c-6.356,9.769-22.097,9.846-28.295,0.038c-0.562-0.886-1.213-1.68-1.901-2.423c-20.402-46.886-63.717-81.387-116.378-89.139
			v-33.998c64.524,7.524,121.197,48.667,147.927,109.26C479.238,237.337,478.744,243.267,475.511,248.225z"/>
	</g>
</g>
</svg>